<?xml version="1.0" standalone="no"?>
<!DOCTYPE svg PUBLIC "-//W3C//DTD SVG 20010904//EN"
 "http://www.w3.org/TR/2001/REC-SVG-20010904/DTD/svg10.dtd">
<svg version="1.0" xmlns="http://www.w3.org/2000/svg"
 width="444.000000pt" height="444.000000pt" viewBox="0 0 444.000000 444.000000"
 preserveAspectRatio="xMidYMid meet">
<metadata>
Created by potrace 1.11, written by Peter Selinger 2001-2013
</metadata>
<g transform="translate(0.000000,444.000000) scale(0.100000,-0.100000)"
fill="#000000" stroke="none">
<path d="M2130 4207 c-22 -12 -311 -230 -1352 -1017 l-317 -240 -121 0 c-121
0 -122 0 -151 -29 l-29 -29 0 -201 0 -201 29 -32 c27 -30 34 -33 105 -36 l76
-4 0 -1047 c0 -1020 1 -1047 20 -1078 41 -68 -105 -63 1820 -61 l1742 3 34 37
34 38 1 992 c0 546 0 1021 -1 1056 l-1 62 71 0 c69 0 74 2 106 34 l34 34 0
202 0 202 -29 29 c-29 29 -30 29 -151 29 l-121 0 -222 168 c-122 93 -334 253
-472 357 -388 293 -646 488 -818 619 -149 112 -162 120 -210 123 -32 3 -62 -1
-77 -10z m136 -114 c27 -20 65 -52 84 -70 19 -18 38 -33 42 -33 4 0 49 -33
100 -72 51 -40 127 -98 168 -128 l74 -55 -272 -3 c-150 -1 -393 -1 -542 0
l-270 3 262 198 c155 117 270 197 283 197 12 0 44 -17 71 -37z m669 -511 c33
-25 116 -88 185 -140 69 -52 127 -96 129 -98 3 -2 -474 -4 -1059 -4 l-1063 0
198 148 197 149 677 -5 676 -4 60 -46z m-1484 -347 c8 -5 10 -4 5 3 -5 8 0 12
13 12 13 0 21 -7 21 -17 0 -13 2 -15 8 -5 7 10 198 13 946 13 516 0 943 -4
949 -8 85 -61 355 -268 353 -270 -1 -2 -705 -4 -1564 -6 -859 -1 -1558 1
-1554 5 4 4 90 70 192 147 l185 141 217 -4 c119 -2 222 -7 229 -11z m2689
-550 l0 -175 -1945 0 -1945 0 0 175 0 175 1945 0 1945 0 0 -175z m-370 -287
c0 -15 29 -53 83 -108 l82 -85 -82 80 -83 80 0 -168 c0 -132 3 -167 13 -161
10 6 10 4 0 -7 -10 -10 -13 -163 -13 -693 l0 -681 83 -85 82 -85 -82 80 -82
79 -3 -159 -3 -160 -112 -3 -113 -3 0 761 c0 728 -1 762 -19 798 -24 47 -56
77 -103 97 -33 13 -175 15 -1223 15 -1048 0 -1190 -2 -1223 -15 -47 -20 -79
-50 -103 -97 -18 -36 -19 -70 -19 -798 l0 -760 -179 0 c-150 0 -182 3 -195 16
-14 14 -16 123 -16 1050 l0 1034 1655 0 1655 0 0 -22z m160 -221 c0 -2 -19
-21 -42 -42 l-43 -40 40 43 c36 39 45 47 45 39z m-1143 -548 c15 -5 43 -25 61
-42 64 -61 66 -72 70 -294 l4 -203 -41 0 c-26 0 -41 5 -42 13 0 6 0 87 1 178
2 183 -6 219 -55 257 -28 22 -28 22 -590 22 -554 0 -563 0 -589 -21 -51 -40
-53 -53 -55 -346 l-1 -103 -41 0 -41 0 4 203 3 204 30 48 c20 32 45 56 74 72
l44 23 568 0 c376 0 577 -4 596 -11z m-49 -351 l2 -188 -550 0 -550 0 0 171
c0 99 4 178 10 190 11 19 25 19 548 17 l537 -3 3 -187z m-1413 -4 c13 -5 14
-9 4 -15 -7 -4 -23 -3 -35 1 -17 7 -22 6 -19 -3 3 -7 -11 -23 -29 -37 -41 -30
-41 -58 0 -94 16 -14 25 -25 19 -25 -14 0 -60 42 -68 62 -3 9 -2 17 4 17 6 0
8 4 4 9 -9 15 15 56 43 74 29 18 51 21 77 11z m1758 -35 c-17 -17 -36 -28 -42
-25 -15 10 -14 26 2 20 7 -2 22 4 32 16 10 11 23 20 29 20 6 0 -3 -14 -21 -31z
m-1708 -66 c-8 -32 -13 -39 -21 -30 -10 9 5 57 17 57 7 0 9 -10 4 -27z m316
-322 c70 -70 5 -181 -88 -150 -53 17 -77 78 -49 128 31 55 93 65 137 22z
m1108 15 c28 -15 51 -53 51 -86 0 -11 -13 -34 -29 -52 -22 -25 -36 -32 -65
-32 -84 0 -120 100 -57 156 35 31 59 35 100 14z m-441 -339 l-3 -72 -162 -3
-163 -2 0 74 c0 41 4 76 10 78 5 2 80 2 165 0 l156 -3 -3 -72z m-658 -127 l0
-81 -107 3 -108 3 -3 78 -3 77 111 0 110 0 0 -80z m1160 0 l0 -80 -110 0 -110
0 0 80 0 80 110 0 110 0 0 -80z m1070 37 c0 -1 -28 -29 -62 -62 l-63 -60 60
63 c55 58 65 67 65 59z"/>
<path d="M1535 3376 c11 -8 24 -12 28 -9 11 7 -12 23 -32 23 -11 0 -9 -4 4
-14z"/>
<path d="M1548 3203 c7 -3 16 -2 19 1 4 3 -2 6 -13 5 -11 0 -14 -3 -6 -6z"/>
<path d="M3068 3183 c6 -2 18 -2 25 0 6 3 1 5 -13 5 -14 0 -19 -2 -12 -5z"/>
<path d="M1364 3098 l-19 -23 23 19 c21 18 27 26 19 26 -2 0 -12 -10 -23 -22z"/>
<path d="M1307 3069 c4 -13 8 -18 11 -10 2 7 -1 18 -6 23 -8 8 -9 4 -5 -13z"/>
<path d="M1425 2326 c-17 -7 -43 -28 -58 -45 -52 -62 -29 -179 42 -216 45 -22
112 -19 152 8 92 61 89 189 -7 244 -44 26 -85 28 -129 9z m98 -107 c16 -26 0
-68 -29 -75 -46 -12 -85 51 -52 84 17 17 68 11 81 -9z"/>
<path d="M2130 2321 c-98 -51 -107 -171 -20 -245 25 -21 42 -26 85 -26 43 0
60 5 85 26 63 54 79 133 37 195 -43 64 -121 86 -187 50z m112 -107 c15 -31 2
-55 -35 -68 -21 -8 -31 -6 -47 9 -39 35 -18 85 36 85 27 0 37 -5 46 -26z"/>
<path d="M2839 2320 c-89 -47 -103 -164 -29 -235 23 -22 42 -29 83 -33 94 -8
157 47 157 136 0 60 -24 105 -69 130 -47 27 -94 27 -142 2z m114 -101 c28 -44
-25 -95 -72 -69 -24 12 -29 58 -9 78 17 17 68 11 81 -9z"/>
</g>
</svg>
